<svg height="512" viewBox="0 0 512 512" width="512" xmlns="http://www.w3.org/2000/svg"><circle cx="256" cy="256" fill="#6478b9" r="224"/><path d="m256 32v448c123.712 0 224-100.288 224-224s-100.288-224-224-224z" fill="#465a9b"/><path d="m128 96h18.667a32 32 0 0 1 32 32 32 32 0 0 1 -32 32h-2.667a32 32 0 0 0 -32 32 32 32 0 0 0 32 32h144a32 32 0 0 0 32-32 32 32 0 0 0 -32-32 32 32 0 0 1 -32-32 32 32 0 0 1 32-32h32a32 32 0 0 0 32-32 31.9 31.9 0 0 0 -2.1-11.413 224.121 224.121 0 0 0 -242.543 35.856 31.861 31.861 0 0 0 20.643 7.557z" fill="#82cdaa"/><g fill="#199196"><path d="m288 96h32a32 32 0 0 0 32-32 31.9 31.9 0 0 0 -2.1-11.413 223.128 223.128 0 0 0 -93.9-20.587v96a32 32 0 0 1 32-32z"/><path d="m320 192a32 32 0 0 0 -32-32 32 32 0 0 1 -32-32v96h32a32 32 0 0 0 32-32z"/><path d="m477.715 288h-157.715a32 32 0 0 0 -32 32 32 32 0 0 0 32 32 32 32 0 0 1 32 32 32 32 0 0 1 -32 32h-64a32 32 0 0 0 -32 32 32 32 0 0 0 32 32c112.845 0 206.185-83.449 221.715-192z"/></g><path d="m256 416a0 0 0 0 1 0 0v64a0 0 0 0 1 0 0 32 32 0 0 1 -32-32 32 32 0 0 1 32-32z" fill="#82cdaa"/><rect fill="#82cdaa" height="64" rx="32" width="96" x="80" y="288"/></svg>