<svg height="496pt" viewBox="-88 0 496 496" width="496pt" xmlns="http://www.w3.org/2000/svg"><path d="m194.035156 188.585938-25.316406-22.121094 25.484375-23.847656c2.632813-2.460938 2.480469-6.320313-.335937-8.621094-2.824219-2.300782-7.242188-2.167969-9.871094.296875l-25.15625 23.539062-22.984375-20.082031c-2.730469-2.382812-7.148438-2.382812-9.875 0-2.726563 2.382812-2.726563 6.242188 0 8.625l23.324219 20.378906-23.488282 21.980469c-2.632812 2.460937-2.480468 6.320313.335938 8.621094 1.347656 1.097656 3.054687 1.640625 4.761718 1.640625 1.871094 0 3.734376-.648438 5.105469-1.9375l23.164063-21.671875 24.980468 21.824219c1.363282 1.191406 3.148438 1.785156 4.9375 1.785156 1.785157 0 3.570313-.59375 4.933594-1.785156 2.726563-2.382813 2.726563-6.246094 0-8.625zm0 0" fill="#f9cfcf"/><path d="m194.035156 259.292969-25.316406-22.117188 25.484375-23.847656c2.632813-2.460937 2.480469-6.320313-.335937-8.621094-2.824219-2.300781-7.242188-2.167969-9.871094.296875l-25.15625 23.539063-22.984375-20.082031c-2.730469-2.382813-7.148438-2.382813-9.875 0-2.726563 2.382812-2.726563 6.242187 0 8.625l23.324219 20.378906-23.488282 21.980468c-2.632812 2.460938-2.480468 6.320313.335938 8.621094 1.347656 1.097656 3.054687 1.640625 4.761718 1.640625 1.871094 0 3.734376-.648437 5.105469-1.9375l23.164063-21.671875 24.980468 21.824219c1.363282 1.191406 3.148438 1.785156 4.9375 1.785156 1.785157 0 3.570313-.59375 4.933594-1.785156 2.726563-2.382813 2.726563-6.246094 0-8.628906zm0 0" fill="#f9cfcf"/><path d="m194.035156 330.003906-25.316406-22.121094 25.484375-23.847656c2.632813-2.460937 2.480469-6.320312-.335937-8.621094-2.824219-2.300781-7.242188-2.167968-9.871094.296876l-25.15625 23.539062-22.984375-20.082031c-2.730469-2.382813-7.148438-2.382813-9.875 0-2.726563 2.382812-2.726563 6.242187 0 8.625l23.324219 20.378906-23.488282 21.980469c-2.632812 2.460937-2.480468 6.320312.335938 8.621094 1.347656 1.097656 3.054687 1.640624 4.761718 1.640624 1.871094 0 3.734376-.648437 5.105469-1.9375l23.164063-21.671874 24.980468 21.824218c1.363282 1.191406 3.148438 1.785156 4.9375 1.785156 1.785157 0 3.570313-.59375 4.933594-1.785156 2.726563-2.382812 2.726563-6.246094 0-8.625zm0 0" fill="#f9cfcf"/><path d="m194.035156 400.710938-25.316406-22.121094 25.484375-23.847656c2.632813-2.460938 2.480469-6.320313-.335937-8.621094-2.824219-2.300782-7.242188-2.164063-9.871094.296875l-25.15625 23.539062-22.984375-20.082031c-2.730469-2.382812-7.148438-2.382812-9.875 0-2.726563 2.382812-2.726563 6.246094 0 8.628906l23.324219 20.375-23.488282 21.980469c-2.632812 2.460937-2.480468 6.324219.335938 8.621094 1.347656 1.097656 3.054687 1.644531 4.761718 1.644531 1.871094 0 3.734376-.652344 5.105469-1.9375l23.164063-21.675781 24.980468 21.828125c1.363282 1.1875 3.148438 1.785156 4.9375 1.785156 1.785157 0 3.570313-.597656 4.933594-1.785156 2.726563-2.382813 2.726563-6.246094 0-8.628906zm0 0" fill="#f9cfcf"/><path d="m194.035156 471.421875-25.316406-22.121094 25.484375-23.847656c2.632813-2.460937 2.480469-6.320313-.335937-8.621094-2.824219-2.300781-7.242188-2.167969-9.871094.296875l-25.15625 23.539063-22.984375-20.082031c-2.730469-2.382813-7.148438-2.382813-9.875 0-2.726563 2.382812-2.726563 6.242187 0 8.625l23.324219 20.378906-23.488282 21.980468c-2.632812 2.460938-2.480468 6.320313.335938 8.621094 1.347656 1.097656 3.054687 1.644532 4.761718 1.644532 1.871094 0 3.734376-.652344 5.105469-1.941407l23.164063-21.671875 24.980468 21.824219c1.363282 1.191406 3.148438 1.789063 4.9375 1.789063 1.785157 0 3.570313-.597657 4.933594-1.789063 2.726563-2.382813 2.726563-6.246094 0-8.625zm0 0" fill="#f9cfcf"/><path d="m160.007812 4h-50.035156c-2.570312 0-4.65625 1.820312-4.65625 4.066406v12.253906l4.714844 55.863282h99.953125l4.714844-55.863282v-12.253906c0-2.246094-2.085938-4.066406-4.65625-4.066406zm0 0" fill="#4671c6"/><path d="m130.917969 492h-17.757813c-2.402344 0-4.351562-1.949219-4.351562-4.351562v-386.554688h22.113281v390.90625zm0 0" fill="#a4c9ff"/><path d="m206.859375 492h-17.757813v-390.90625h22.109376v386.554688c-.003907 2.402343-1.949219 4.351562-4.351563 4.351562zm0 0" fill="#a4c9ff"/><path d="m130.917969 122.1875h58.183593v16.265625h-58.183593zm0 0" fill="#a4c9ff"/><path d="m130.917969 192.898438h58.183593v16.265624h-58.183593zm0 0" fill="#a4c9ff"/><path d="m130.917969 263.605469h58.183593v16.265625h-58.183593zm0 0" fill="#a4c9ff"/><path d="m130.917969 334.316406h58.183593v16.265625h-58.183593zm0 0" fill="#a4c9ff"/><path d="m130.917969 405.023438h58.183593v16.265624h-58.183593zm0 0" fill="#a4c9ff"/><path d="m217.480469 101.09375h-114.945313c-3.605468 0-6.527344-2.921875-6.527344-6.527344v-11.855468c0-3.605469 2.921876-6.527344 6.527344-6.527344h114.945313c3.605469 0 6.527343 2.921875 6.527343 6.527344v11.855468c0 3.605469-2.921874 6.527344-6.527343 6.527344zm0 0" fill="#6bdddd"/><path d="m258.558594 178c-3.316406 0-6-2.6875-6-6v-140.5c0-3.3125 2.683594-6 6-6 3.3125 0 6 2.6875 6 6v140.5c0 3.3125-2.683594 6-6 6zm0 0" fill="#e0ebfc"/><path d="m285.460938 204.25c-3.316407 0-6-2.6875-6-6v-94.75c0-3.3125 2.683593-6 6-6 3.3125 0 6 2.6875 6 6v94.75c0 3.3125-2.6875 6-6 6zm0 0" fill="#e0ebfc"/><path d="m61.457031 178c-3.3125 0-6-2.6875-6-6l.003907-140.5c0-3.3125 2.6875-6 6-6s6 2.6875 6 6l-.003907 140.5c0 3.3125-2.6875 6-6 6zm0 0" fill="#e0ebfc"/><path d="m34.554688 204.25c-3.3125 0-6-2.6875-6-6l.003906-94.75c0-3.3125 2.6875-6 6-6s6 2.6875 6 6l-.003906 94.75c0 3.3125-2.683594 6-6 6zm0 0" fill="#e0ebfc"/><g fill="#3762cc"><path d="m209.984375 80.183594h-99.953125c-2.078125 0-3.8125-1.589844-3.988281-3.664063l-4.714844-55.863281c-.007813-.109375-.011719-.222656-.011719-.335938v-12.253906c0-4.449218 3.882813-8.066406 8.652344-8.066406h100.074219c4.773437 0 8.65625 3.617188 8.65625 8.066406v12.253906c0 .113282-.003907.226563-.015625.335938l-4.714844 55.863281c-.171875 2.074219-1.90625 3.664063-3.984375 3.664063zm-96.277344-8h92.601563l4.390625-52.03125v-12.074219c-.007813.097656-.230469-.078125-.652344-.078125h-100.074219c-.4375 0-.664062.195312-.699218.242188l.042968 11.90625zm0 0"/><path d="m217.480469 105.09375h-114.945313c-5.804687 0-10.527344-4.722656-10.527344-10.527344v-11.855468c0-5.804688 4.722657-10.527344 10.527344-10.527344h114.949219c5.800781 0 10.527344 4.722656 10.527344 10.527344v11.855468c-.003907 5.804688-4.726563 10.527344-10.53125 10.527344zm-114.945313-24.910156c-1.394531 0-2.527344 1.132812-2.527344 2.527344v11.855468c0 1.390625 1.132813 2.527344 2.527344 2.527344h114.949219c1.390625 0 2.527344-1.136719 2.527344-2.527344v-11.855468c0-1.394532-1.132813-2.527344-2.527344-2.527344zm0 0"/><path d="m130.914062 496h-17.757812c-4.601562 0-8.347656-3.746094-8.347656-8.351562v-386.554688c0-2.210938 1.792968-4 4-4h22.105468c2.210938 0 4 1.789062 4 4v390.90625c0 2.207031-1.789062 4-4 4zm-18.105468-390.90625v382.554688c0 .195312.15625.351562.347656.351562h13.757812v-382.90625zm0 0"/><path d="m206.859375 496h-17.757813c-2.210937 0-4-1.792969-4-4v-390.90625c0-2.210938 1.789063-4 4-4h22.105469c2.207031 0 4 1.789062 4 4v386.554688c0 4.605468-3.746093 8.351562-8.347656 8.351562zm-13.757813-8h13.757813c.191406 0 .347656-.15625.347656-.351562v-382.554688h-14.105469zm0 0"/><path d="m189.101562 142.457031h-58.1875c-2.207031 0-4-1.792969-4-4v-16.265625c0-2.210937 1.792969-4 4-4h58.1875c2.207032 0 4 1.789063 4 4v16.265625c0 2.207031-1.792968 4-4 4zm-54.1875-8h50.1875v-8.265625h-50.1875zm0 0"/><path d="m189.101562 213.164062h-58.1875c-2.207031 0-4-1.792968-4-4v-16.265624c0-2.207032 1.792969-4 4-4h58.1875c2.207032 0 4 1.792968 4 4v16.265624c0 2.210938-1.792968 4-4 4zm-54.1875-8h50.1875v-8.265624h-50.1875zm0 0"/><path d="m189.101562 425.292969h-58.1875c-2.207031 0-4-1.792969-4-4v-16.265625c0-2.210938 1.792969-4 4-4h58.1875c2.207032 0 4 1.789062 4 4v16.265625c0 2.207031-1.792968 4-4 4zm-54.1875-8h50.1875v-8.265625h-50.1875zm0 0"/><path d="m189.101562 283.875h-58.1875c-2.207031 0-4-1.792969-4-4v-16.265625c0-2.210937 1.792969-4 4-4h58.1875c2.207032 0 4 1.789063 4 4v16.265625c0 2.207031-1.792968 4-4 4zm-54.1875-8h50.1875v-8.265625h-50.1875zm0 0"/><path d="m189.101562 354.582031h-58.1875c-2.207031 0-4-1.792969-4-4v-16.265625c0-2.207031 1.792969-4 4-4h58.1875c2.207032 0 4 1.792969 4 4v16.265625c0 2.210938-1.792968 4-4 4zm-54.1875-8h50.1875v-8.265625h-50.1875zm0 0"/></g><path d="m218.492188 382.882812h-116.984376c-3.601562 0-6.523437-2.917968-6.523437-6.523437v-20.574219h130.03125v20.574219c0 3.601563-2.917969 6.523437-6.523437 6.523437zm0 0" fill="#6bdddd"/><path d="m218.492188 386.882812h-116.984376c-5.800781 0-10.523437-4.722656-10.523437-10.523437v-20.578125c0-2.207031 1.792969-4 4-4h130.03125c2.207031 0 4 1.792969 4 4v20.578125c0 5.800781-4.71875 10.523437-10.523437 10.523437zm-119.507813-27.097656v16.574219c0 1.394531 1.132813 2.523437 2.523437 2.523437h116.984376c1.390624 0 2.523437-1.128906 2.523437-2.523437v-16.574219zm0 0" fill="#3762cc"/><path d="m130.917969 475.734375h58.183593v16.265625h-58.183593zm0 0" fill="#a4c9ff"/><path d="m189.101562 496h-58.1875c-2.207031 0-4-1.792969-4-4v-16.265625c0-2.207031 1.792969-4 4-4h58.1875c2.207032 0 4 1.792969 4 4v16.265625c0 2.207031-1.792968 4-4 4zm-54.1875-8h50.1875v-8.265625h-50.1875zm0 0" fill="#3762cc"/><path d="m310.058594 310.898438h-7.59375c-2.152344 0-3.898438 1.792968-3.898438 4v12.886718h-277.128906v-12.886718c0-2.207032-1.746094-4-3.902344-4h-9.632812c-2.15625 0-3.898438 1.792968-3.898438 4v34.882812c0 3.316406 2.65625 6 5.941406 6h300.113282c3.28125 0 5.941406-2.683594 5.941406-6v-34.882812c0-2.207032-1.746094-4-3.898438-4zm0 0" fill="#4671c6"/><path d="m310.054688 359.785156h-300.109376c-5.484374 0-9.945312-4.488281-9.945312-10v-34.886718c0-4.410157 3.542969-8 7.898438-8h9.636718c4.355469 0 7.898438 3.589843 7.898438 8v8.882812h269.128906v-8.882812c0-4.410157 3.542969-8 7.898438-8h9.636718c4.355469 0 7.898438 3.589843 7.898438 8v34.882812c.003906 5.515625-4.457032 10.003906-9.941406 10.003906zm-302.15625-44.886718.101562 2v32.882812c0 1.101562.871094 2 1.945312 2h300.113282c1.070312 0 1.945312-.898438 1.945312-2v-34.882812h-9.539062l.101562 12.882812c0 2.207031-1.792968 4-4 4h-277.128906c-2.210938 0-4-1.792969-4-4v-12.882812zm0 0" fill="#3762cc"/><path d="m108.785156 316.878906h-79.980468v-64.824218c0-9.011719 7.304687-16.320313 16.320312-16.320313h47.34375c9.011719 0 16.320312 7.304687 16.320312 16.320313v64.824218zm0 0" fill="#f9a7a7"/><path d="m110.914062 341.851562h-85.292968c-2.3125 0-4.183594-1.875-4.183594-4.1875v-16.601562c0-2.3125 1.871094-4.1875 4.183594-4.1875h85.292968c2.3125 0 4.1875 1.875 4.1875 4.1875v16.601562c0 2.3125-1.875 4.1875-4.1875 4.1875zm0 0" fill="#f9a7a7"/><path d="m108.785156 320.878906h-79.984375c-2.207031 0-4-1.792968-4-4v-64.828125c0-11.203125 9.117188-20.320312 20.320313-20.320312h47.34375c11.207031 0 20.320312 9.117187 20.320312 20.320312v64.828125c0 2.207032-1.792968 4-4 4zm-75.984375-8h71.984375v-60.828125c0-6.789062-5.527344-12.320312-12.320312-12.320312h-47.339844c-6.792969 0-12.320312 5.527343-12.320312 12.320312v60.828125zm0 0" fill="#3762cc"/><path d="m110.914062 345.851562h-85.292968c-4.511719 0-8.183594-3.671874-8.183594-8.1875v-16.601562c0-4.515625 3.671875-8.1875 8.183594-8.1875h85.292968c4.515626 0 8.1875 3.671875 8.1875 8.1875v16.601562c0 4.515626-3.671874 8.1875-8.1875 8.1875zm-85.292968-24.972656c-.101563 0-.183594.082032-.183594.183594v16.601562c0 .105469.082031.1875.183594.1875h85.292968c.101563 0 .1875-.082031.1875-.1875v-16.601562c0-.101562-.085937-.183594-.1875-.183594zm0 0" fill="#3762cc"/><path d="m103.769531 299.214844h-71c-4.589843 0-8.308593-3.71875-8.308593-8.308594v-.035156c0-4.585938 3.71875-8.304688 8.308593-8.304688h71c4.585938 0 8.304688 3.71875 8.304688 8.304688v.035156c0 4.585938-3.71875 8.308594-8.304688 8.308594zm0 0" fill="#ffea92"/><path d="m103.769531 303.210938h-71c-6.789062 0-12.308593-5.519532-12.308593-12.304688 0-6.820312 5.523437-12.34375 12.308593-12.34375h71c6.785157 0 12.304688 5.523438 12.304688 12.308594 0 6.820312-5.519531 12.339844-12.304688 12.339844zm-71-16.648438c-2.378906 0-4.308593 1.933594-4.308593 4.308594 0 2.410156 1.933593 4.339844 4.308593 4.339844h71c2.375 0 4.304688-1.929688 4.304688-4.304688 0-2.414062-1.933594-4.34375-4.304688-4.34375zm0 0" fill="#3762cc"/><path d="m201.136719 317.175781h-81.1875v-65.476562c0-9.128907 7.398437-16.53125 16.527343-16.53125h48.132813c9.128906 0 16.53125 7.398437 16.53125 16.53125v65.476562zm0 0" fill="#f9a7a7"/><path d="m203.808594 342.414062h-86.601563c-2.339843 0-4.238281-1.898437-4.238281-4.238281v-16.761719c0-2.34375 1.898438-4.238281 4.238281-4.238281h86.597657c2.34375 0 4.242187 1.894531 4.242187 4.238281v16.761719c0 2.339844-1.898437 4.238281-4.238281 4.238281zm0 0" fill="#f9a7a7"/><path d="m201.136719 321.175781h-81.1875c-2.210938 0-4-1.792969-4-4v-65.476562c0-11.320313 9.207031-20.527344 20.527343-20.527344h48.132813c11.320313 0 20.527344 9.207031 20.527344 20.527344v65.476562c0 2.207031-1.789063 4-4 4zm-77.1875-8h73.1875v-61.476562c0-6.90625-5.621094-12.527344-12.527344-12.527344h-48.132813c-6.90625 0-12.527343 5.621094-12.527343 12.527344zm0 0" fill="#3762cc"/><path d="m203.804688 346.414062h-86.597657c-4.542969 0-8.238281-3.695312-8.238281-8.238281v-16.761719c0-4.542968 3.695312-8.238281 8.238281-8.238281h86.597657c4.542968 0 8.242187 3.695313 8.242187 8.238281v16.761719c0 4.542969-3.695313 8.238281-8.242187 8.238281zm-86.59375-25.238281c-.132813 0-.242188.109375-.242188.238281v16.761719c0 .128907.109375.238281.242188.238281h86.597656c.132812 0 .238281-.109374.238281-.238281v-16.761719c0-.128906-.105469-.238281-.238281-.238281zm0 0" fill="#3762cc"/><path d="m196.183594 299.214844h-71.351563c-4.597656 0-8.324219-3.726563-8.324219-8.324219s3.726563-8.324219 8.324219-8.324219h71.351563c4.597656 0 8.324218 3.726563 8.324218 8.324219 0 4.59375-3.726562 8.324219-8.324218 8.324219zm0 0" fill="#ffea92"/><path d="m196.183594 303.210938h-71.351563c-6.792969 0-12.324219-5.527344-12.324219-12.324219 0-6.792969 5.53125-12.324219 12.324219-12.324219h71.351563c6.792968 0 12.324218 5.53125 12.324218 12.324219 0 6.796875-5.53125 12.324219-12.324218 12.324219zm-71.351563-16.648438c-2.382812 0-4.324219 1.941406-4.324219 4.324219 0 2.386719 1.941407 4.324219 4.324219 4.324219h71.351563c2.382812 0 4.324218-1.9375 4.324218-4.324219 0-2.382813-1.941406-4.324219-4.324218-4.324219zm0 0" fill="#3762cc"/><path d="m292.175781 317.175781h-80.941406v-65.5c0-9.117187 7.386719-16.503906 16.503906-16.503906h47.933594c9.113281 0 16.503906 7.386719 16.503906 16.503906zm0 0" fill="#f9a7a7"/><path d="m294.328125 342.414062h-86.316406c-2.335938 0-4.234375-1.894531-4.234375-4.234374v-16.773438c0-2.335938 1.898437-4.230469 4.234375-4.230469h86.316406c2.339844 0 4.234375 1.894531 4.234375 4.230469v16.773438c0 2.339843-1.894531 4.234374-4.234375 4.234374zm0 0" fill="#f9a7a7"/><path d="m292.175781 321.175781h-80.941406c-2.207031 0-4-1.792969-4-4v-65.5c0-11.308593 9.199219-20.503906 20.503906-20.503906h47.933594c11.304687 0 20.503906 9.195313 20.503906 20.503906v65.5c0 2.207031-1.792969 4-4 4zm-76.941406-8h72.941406v-61.5c0-6.894531-5.613281-12.503906-12.503906-12.503906h-47.933594c-6.894531 0-12.503906 5.609375-12.503906 12.503906zm0 0" fill="#3762cc"/><path d="m294.328125 346.414062h-86.3125c-4.542969 0-8.234375-3.695312-8.234375-8.230468v-16.773438c0-4.539062 3.691406-8.234375 8.234375-8.234375h86.3125c4.542969 0 8.234375 3.695313 8.234375 8.234375v16.773438c0 4.535156-3.691406 8.230468-8.234375 8.230468zm-86.3125-25.238281c-.128906 0-.234375.105469-.234375.234375v16.773438c0 .125.105469.230468.234375.230468h86.3125c.128906 0 .234375-.105468.234375-.230468v-16.773438c0-.128906-.105469-.234375-.234375-.234375zm0 0" fill="#3762cc"/><path d="m287.527344 299.214844h-71.351563c-4.597656 0-8.324219-3.726563-8.324219-8.324219s3.726563-8.324219 8.324219-8.324219h71.351563c4.597656 0 8.324218 3.726563 8.324218 8.324219.003907 4.59375-3.726562 8.324219-8.324218 8.324219zm0 0" fill="#ffea92"/><path d="m287.53125 303.210938h-71.351562c-6.796876 0-12.324219-5.527344-12.324219-12.324219 0-6.792969 5.527343-12.324219 12.324219-12.324219h71.351562c6.792969 0 12.324219 5.53125 12.324219 12.324219 0 6.796875-5.53125 12.324219-12.324219 12.324219zm-71.351562-16.648438c-2.386719 0-4.324219 1.941406-4.324219 4.324219 0 2.386719 1.9375 4.324219 4.324219 4.324219h71.351562c2.382812 0 4.324219-1.9375 4.324219-4.324219 0-2.382813-1.941407-4.324219-4.324219-4.324219zm0 0" fill="#3762cc"/></svg>